<?xml version="1.0" encoding="utf-8"?>
<!-- Generator: Adobe Illustrator 21.0.0, SVG Export Plug-In . SVG Version: 6.00 Build 0)  -->
<svg version="1.1" id="Ebene_1" xmlns="http://www.w3.org/2000/svg" xmlns:xlink="http://www.w3.org/1999/xlink" x="0px" y="0px"
	 viewBox="0 0 986 441" style="enable-background:new 0 0 986 441;" xml:space="preserve">
<style type="text/css">
	.st0{fill:#FF0866;}
	.st1{fill:#FFFFFF;}
	.st2{fill:#00CE6E;}
</style>
<path class="st0" d="M426.2,218.2C426.2,106.5,335.7,16,224,16S21.8,106.5,21.8,218.2S112.3,420.3,224,420.3
	c24.6,0,48.2-4.4,70.1-12.5c-30.6-2.1-77.9-5.7-118-10.5c-70.9-8.3-166.7-87.5,0-145.9c25-8.3,52.1-14.6,100-25
	c28.4-6.2,10.4-135.5-14.6-143.8c-25-8.3-18.7,2.1-25-12.5c-4.2-9.8,12.5-8.3,12.5-8.3l6.3-14.6c0,0,47-1.4,62.5,64.6
	c8.3,35.4,37.5,148-33.3,214.7c0-8.3-4.2-29.2-4.2-29.2l-18.8,77.1h-16.7l-10.4-31.3l-16.7-12.5c0,0-12.5,20.8-20.8,33.3
	c0,0-13-6.9-22.8-16.8c8.8,13.3,22.7,29.5,39.4,33.5c45.5,10.8,74,18.2,91,22.9C376.1,372.5,426.2,301.2,426.2,218.2z"/>
<g>
	<path class="st1" d="M174.1,347.2c-5.4-5.5-9.9-11.9-10.6-18.6C163.6,328.6,167.4,337.1,174.1,347.2c9.8,9.9,22.8,16.8,22.8,16.8
		c8.3-12.5,20.8-33.3,20.8-33.3l16.7,12.5l10.4,31.3h16.7l18.8-77.1c0,0,4.2,20.8,4.2,29.2c70.9-66.7,41.7-179.2,33.3-214.7
		c-15.5-66.1-62.5-64.6-62.5-64.6L249,61.9c0,0-16.7-1.4-12.5,8.3c6.3,14.6,0,4.2,25,12.5c25,8.3,43,137.6,14.6,143.8
		c-47.9,10.4-75,16.7-100,25c-166.7,58.4-70.9,137.6,0,145.9c40.1,4.7,87.4,8.3,118,10.5c3.6-1.3,7.1-2.7,10.5-4.2
		c-17-4.6-45.6-12.1-91-22.9C196.8,376.8,183,360.5,174.1,347.2z"/>
</g>
<g>
	<path class="st1" d="M174.1,347.2c-6.7-10.1-10.6-18.6-10.6-18.6C164.3,335.3,168.7,341.7,174.1,347.2z"/>
</g>
<path class="st1" d="M317.8,299.5c-16.7,25-29.2,37.5-29.2,37.5v37.5h16.7L317.8,299.5z"/>
<g>
	<path class="st1" d="M138.8,249.2h-18.8l-1.1-8.3c-4.2,5.9-10.6,10.6-20.2,10.6c-18.1,0-27.1-15-27.1-38.1
		c0-22,11.1-37.7,29.5-37.7c6.6,0,12.3,2.5,16.5,6.7v-35l21.2,2.3V249.2z M117.7,227.8v-30.7c-3.2-3.8-6.3-6-11-6
		c-7.6,0-13,6.4-13,22.4c0,17.7,4.8,22.4,11.8,22.4C110.4,235.9,114.3,233.2,117.7,227.8z"/>
</g>
<g>
	<path class="st1" d="M172.9,156.1c0,5.1-3.9,9-9.4,9c-5.5,0-9.3-3.9-9.3-9c0-5.1,3.8-9,9.3-9C169,147,172.9,151,172.9,156.1z
		 M155.6,228.6v-53.4h15.9v53.4H155.6z"/>
</g>
<g>
	<path class="st1" d="M223.6,183.5v30.3h-12.4v-28.2c0-4.4-1.5-5.6-3.9-5.6c-2.7,0-5,2-7.2,5.4v28.4h-12.4v-41.5h10.8l0.9,4.9
		c3.5-4.1,7.5-6.3,12.7-6.3C219.3,171,223.6,175.6,223.6,183.5z"/>
</g>
<g>
	<path class="st1" d="M273,184.2c0,13.3-7.7,22.1-20.3,22.1c-12.6,0-20.3-8.1-20.3-22.1c0-13.3,7.7-22.1,20.3-22.1
		S273,170.2,273,184.2z M245.1,184.1c0,9.2,2.5,13.1,7.5,13.1c5,0,7.5-4,7.5-13c0-9.2-2.5-13.1-7.5-13.1
		C247.6,171.1,245.1,175.1,245.1,184.1z"/>
</g>
<g>
	<path class="st2" d="M526.2,157.3l0.1,130.6l-37.8,0l-0.1-130.6l-41.2,0l0-29l176.1-0.1l-3.7,29L526.2,157.3z"/>
	<path class="st2" d="M583.9,263.9l-5.7,24.3l-27.8,0l34-113.2l32.5,0l39.5,126.6l-28.4,0l-11.2-37.8L583.9,263.9z M600.3,194.5
		l-11.9,50l23.9,0L600.3,194.5z"/>
	<path class="st2" d="M741.8,186.7l-12.6,14.5c-7.7-6.4-15.5-9.5-24.7-9.5c-9.3,0-15.2,3.9-15.2,11.1c0,7.2,4.3,10.1,21.9,15.7
		c21.4,6.8,33.7,15.7,33.7,36.6c0,21.1-16.6,35.8-44.9,35.8c-19.6,0-33.7-7.2-43-16.1l13.7-15c8,7.2,17.2,11.3,28.4,11.2
		c11.1,0,18-5.2,18-13.9c0-8.3-4.3-12.1-20.8-17.1c-25.3-7.8-34.7-18.3-34.7-35.1c0-19.9,17.3-32.7,40.8-32.7
		C719.9,172.2,731.8,177.2,741.8,186.7z"/>
	<path class="st2" d="M763.8,288.1l-0.1-113.2l26.8,0l0.1,113.2L763.8,288.1z M858.5,288l-31,0l-36.2-60.4l68.2-99.4l28.3,0
		l-68.4,97.5L858.5,288z"/>
	<path class="st2" d="M946.8,186.5l-12.6,14.5c-7.7-6.4-15.5-9.5-24.7-9.5c-9.3,0-15.2,3.9-15.2,11.1c0,7.2,4.3,10.1,21.9,15.7
		C937.7,225.2,950,234,950,255c0,21.1-16.6,35.8-44.9,35.8c-19.6,0-33.7-7.2-43-16.1l13.7-15c8,7.2,17.2,11.3,28.4,11.2
		c11.1,0,18-5.2,18-13.9c0-8.3-4.3-12.1-20.8-17.1c-25.3-7.8-34.7-18.3-34.7-35.1c0-19.9,17.3-32.7,40.8-32.7
		C924.9,172,936.9,177,946.8,186.5z"/>
</g>
</svg>
