<?xml version="1.0" ?><svg id="Layer_1_1_" style="enable-background:new 0 0 64 64;" version="1.1" viewBox="0 0 64 64" xml:space="preserve" xmlns="http://www.w3.org/2000/svg" xmlns:xlink="http://www.w3.org/1999/xlink"><g><g><rect height="18" style="fill:#FFFFFF;" width="2" x="49" y="14"/></g><g><path d="M48,63H4c-1.654,0-3-1.346-3-3V4c0-1.654,1.346-3,3-3h44c1.654,0,3,1.346,3,3v5h-2V4    c0-0.552-0.449-1-1-1H4C3.449,3,3,3.448,3,4v56c0,0.552,0.449,1,1,1h44c0.551,0,1-0.448,1-1V40h2v20C51,61.654,49.654,63,48,63z" style="fill:#ffffff;"/></g><g><path d="M29.096,56.904l4.061-9.476l0.136-0.136l23.171-23.172C57.188,23.398,58.149,23,59.171,23    C61.283,23,63,24.718,63,26.828c0,1.023-0.398,1.984-1.122,2.707L38.571,52.844L29.096,56.904z M34.843,48.571l-1.939,4.524    l4.525-1.939l23.035-23.035C60.805,27.78,61,27.31,61,26.828C61,25.82,60.18,25,59.171,25c-0.488,0-0.948,0.19-1.293,0.535    L34.843,48.571z" style="fill:#ffffff;"/></g><g><rect height="5.657" style="fill:#ffffff;" transform="matrix(0.7071 -0.7071 0.7071 0.7071 -24.8112 40.1005)" width="2" x="35" y="47.172"/></g><g><rect height="5.657" style="fill:#ffffff;" transform="matrix(0.7071 -0.7071 0.7071 0.7071 -5.8112 47.9706)" width="2" x="54" y="28.172"/></g><g><path d="M14,20c-3.309,0-6-2.691-6-6s2.691-6,6-6s6,2.691,6,6S17.309,20,14,20z M14,10    c-2.206,0-4,1.794-4,4s1.794,4,4,4s4-1.794,4-4S16.206,10,14,10z" style="fill:#ffffff;"/></g><g><rect height="2" style="fill:#ffffff;" width="8" x="9" y="22"/></g><g><path d="M17,37h-7v-7h7V37z M12,35h3v-3h-3V35z" style="fill:#ffffff;"/></g><g><path d="M17,47h-7v-7h7V47z M12,45h3v-3h-3V45z" style="fill:#ffffff;"/></g><g><path d="M35,37h-7v-7h7V37z M30,35h3v-3h-3V35z" style="fill:#ffffff;"/></g><g><path d="M35,47h-7v-7h7V47z M30,45h3v-3h-3V45z" style="fill:#ffffff;"/></g><g><rect height="2" style="fill:#ffffff;" width="14" x="27" y="11"/></g><g><rect height="2" style="fill:#ffffff;" width="18" x="27" y="17"/></g><g><rect height="2" style="fill:#ffffff;" width="18" x="27" y="23"/></g><g><rect height="2" style="fill:#ffffff;" width="5" x="19" y="31"/></g><g><rect height="2" style="fill:#ffffff;" width="5" x="19" y="35"/></g><g><rect height="2" style="fill:#ffffff;" width="5" x="37" y="31"/></g><g><rect height="2" style="fill:#ffffff;" width="5" x="37" y="35"/></g><g><rect height="2" style="fill:#ffffff;" width="5" x="19" y="43"/></g><g><rect height="2" style="fill:#ffffff;" width="18" x="10" y="51"/></g><g><rect height="2" style="fill:#ffffff;" width="18" x="10" y="55"/></g><g><rect height="2" style="fill:#ffffff;" width="2" x="19" y="22"/></g><g><path d="M54,21h-2c0-4.248-3.421-9-8-9v-2c4.486,0,8-3.514,8-8h2c0,4.859,3.14,8,8,8v2    C57.584,12,54,17.446,54,21z M48.214,11.102c2.128,1.154,3.885,3.127,4.885,5.494c0.998-2.117,2.625-4.139,4.674-5.373    c-2.199-0.889-3.879-2.501-4.846-4.644C51.919,8.579,50.262,10.173,48.214,11.102z" style="fill:#ffffff;"/></g><g><rect height="2" style="fill:#ffffff;" width="2" x="45" y="57"/></g><g><rect height="2" style="fill:#ffffff;" width="2" x="41" y="57"/></g><g><rect height="2" style="fill:#ffffff;" width="2" x="5" y="57"/></g></g></svg>
